<svg width="28" height="28" viewBox="0 0 28 28" fill="none" xmlns="http://www.w3.org/2000/svg">
<path d="M2.3335 17.8381V6.66145C2.3335 5.10978 3.23183 4.73645 4.3285 5.83311L7.35016 8.85478C7.80516 9.30978 8.55183 9.30978 8.99516 8.85478L13.1718 4.66645C13.6268 4.21145 14.3735 4.21145 14.8168 4.66645L19.0052 8.85478C19.4602 9.30978 20.2068 9.30978 20.6502 8.85478L23.6718 5.83311C24.7685 4.73645 25.6668 5.10978 25.6668 6.66145V17.8498C25.6668 21.3498 23.3335 23.6831 19.8335 23.6831H8.16683C4.94683 23.6714 2.3335 21.0581 2.3335 17.8381Z" fill="url(#paint0_linear_7096_1466)"/>
<defs>
<linearGradient id="paint0_linear_7096_1466" x1="14.0002" y1="4.3252" x2="14.0002" y2="23.6831" gradientUnits="userSpaceOnUse">
<stop stop-color="#787878"/>
<stop offset="0.0001" stop-color="#434343"/>
<stop offset="1"/>
</linearGradient>
</defs>
</svg>
